<svg width="178" height="100" viewBox="0 0 178 100" fill="none" xmlns="http://www.w3.org/2000/svg">
<g filter="url(#filter0_d_1_820)">
<rect x="4.5" y="0.5" width="169" height="91" rx="3.5" stroke="#AFB1B8"/>
<path d="M62.7569 60.7352C63.0006 61.0114 63.1304 61.3572 63.1236 61.7122C63.136 61.9437 63.0914 62.1749 62.993 62.3885C62.8947 62.6021 62.7451 62.7927 62.5554 62.9463C62.082 63.2736 61.4956 63.4336 60.9037 63.3969H58V57.2055H60.8442C61.4057 57.1713 61.9626 57.3167 62.42 57.6168C62.6036 57.7576 62.7491 57.9355 62.8448 58.1365C62.9406 58.3376 62.984 58.5562 62.9716 58.7753C62.9883 59.1168 62.8712 59.4526 62.6413 59.722C62.4206 59.968 62.1156 60.1385 61.7758 60.2059C62.161 60.2703 62.5087 60.4579 62.7569 60.7352ZM59.3511 59.8006H60.5667C60.843 59.8193 61.1174 59.7463 61.3397 59.5949C61.431 59.5192 61.502 59.4252 61.5473 59.3203C61.5925 59.2154 61.6108 59.1024 61.6007 58.99C61.6093 58.878 61.5906 58.7657 61.5461 58.661C61.5015 58.5564 61.4322 58.4622 61.343 58.3851C61.1141 58.2294 60.8312 58.1553 60.5469 58.1764H59.3511V59.8006ZM61.4587 62.175C61.5562 62.0974 61.6329 62.0003 61.6828 61.8912C61.7326 61.7821 61.7543 61.6639 61.7461 61.5458C61.7535 61.4264 61.7309 61.307 61.6799 61.1969C61.6289 61.0868 61.551 60.9888 61.4521 60.9107C61.2142 60.7492 60.9217 60.6699 60.6262 60.6868H59.3511V62.3897H60.6427C60.9334 62.4051 61.2212 62.3293 61.4587 62.175Z" fill="#AFB1B8"/>
<path d="M68.5709 63.3969L66.9886 60.9772H66.394V63.3969H65.033V57.2055H67.6096C68.2591 57.164 68.9012 57.3524 69.4034 57.7318C69.7635 58.0678 69.9808 58.5106 70.0159 58.9803C70.051 59.45 69.9018 59.9158 69.595 60.2937C69.2771 60.6271 68.8428 60.8494 68.3661 60.9228L70.0508 63.3969H68.5709ZM66.394 60.1333H67.5072C68.2802 60.1333 68.6667 59.8208 68.6667 59.1957C68.6746 59.0681 68.6534 58.9403 68.6045 58.8205C68.5556 58.7008 68.48 58.5916 68.3826 58.5C68.1383 58.314 67.8237 58.2238 67.5072 58.249H66.3807L66.394 60.1333Z" fill="#AFB1B8"/>
<path d="M76.0102 62.1506H73.2981L72.8191 63.3968H71.392L73.8828 57.2749H75.4255L77.9063 63.3968H76.4793L76.0102 62.1506ZM75.6468 61.213L74.6558 58.5997L73.6648 61.213H75.6468Z" fill="#AFB1B8"/>
<path d="M85.3224 63.3969H83.9713L80.9421 59.1866V63.3969H79.5943V57.2054H80.9421L83.9713 61.44V57.2054H85.3224V63.3969Z" fill="#AFB1B8"/>
<path d="M93.0326 61.9149C92.7532 62.3823 92.3276 62.7626 91.8103 63.0068C91.2222 63.2788 90.5695 63.4128 89.9109 63.397H87.506V57.2055H89.9109C90.5684 57.1898 91.2202 57.3206 91.8103 57.5866C92.3275 57.8253 92.7536 58.2017 93.0326 58.6664C93.3107 59.17 93.4556 59.7263 93.4556 60.2906C93.4556 60.8549 93.3107 61.4113 93.0326 61.9149ZM91.4866 61.7667C91.8722 61.3554 92.0842 60.8312 92.0842 60.2891C92.0842 59.7471 91.8722 59.2229 91.4866 58.8116C91.0205 58.439 90.4127 58.2499 89.7952 58.2853H88.8571V62.293H89.7952C90.4127 62.3283 91.0205 62.1392 91.4866 61.7667Z" fill="#AFB1B8"/>
<path d="M76.8558 22.7667C76.8558 22.7667 94.2945 28.7949 93.9245 37.518V52.2722C93.9245 52.2722 76.4991 46.2411 76.8624 37.518L76.8558 22.7667Z" fill="#AFB1B8"/>
<path d="M109.46 48.8181C112.754 46.7428 116.563 45.4574 120.54 45.0796V40.4609C115.958 42.0779 112.071 45.0098 109.46 48.8181Z" fill="#AFB1B8"/>
<path d="M107.482 50.2095C110.177 45.2396 114.85 41.4046 120.54 39.4932V26.1847C120.54 26.1847 95.705 34.7717 96.2303 47.1939V68.2001C96.2303 68.2001 97.3369 67.816 99.0778 67.0961C99.0778 66.4247 99.0778 65.7472 99.1571 65.0666C99.6711 59.2996 102.665 53.9556 107.482 50.2095Z" fill="#AFB1B8"/>
<path d="M105.12 58.0131C105.25 56.5563 105.541 55.1152 105.989 53.712C102.99 56.9471 101.173 60.9614 100.796 65.1906C100.759 65.5899 100.739 65.9891 100.729 66.4005C102.14 65.7804 103.782 65.0061 105.506 64.0957C105.066 62.0948 104.936 60.0472 105.12 58.0131Z" fill="#AFB1B8"/>
<path d="M106.107 58.0887C105.942 59.929 106.045 61.7813 106.415 63.5966C113.2 59.8793 120.824 54.1355 120.53 47.1939V46.589C115.682 47.0856 111.147 49.026 107.62 52.112C106.795 54.0244 106.285 56.0387 106.107 58.0887Z" fill="#AFB1B8"/>
</g>
<defs>
<filter id="filter0_d_1_820" x="0" y="0" width="178" height="100" filterUnits="userSpaceOnUse" color-interpolation-filters="sRGB">
<feFlood flood-opacity="0" result="BackgroundImageFix"/>
<feColorMatrix in="SourceAlpha" type="matrix" values="0 0 0 0 0 0 0 0 0 0 0 0 0 0 0 0 0 0 127 0" result="hardAlpha"/>
<feOffset dy="4"/>
<feGaussianBlur stdDeviation="2"/>
<feComposite in2="hardAlpha" operator="out"/>
<feColorMatrix type="matrix" values="0 0 0 0 0 0 0 0 0 0 0 0 0 0 0 0 0 0 0.25 0"/>
<feBlend mode="normal" in2="BackgroundImageFix" result="effect1_dropShadow_1_820"/>
<feBlend mode="normal" in="SourceGraphic" in2="effect1_dropShadow_1_820" result="shape"/>
</filter>
</defs>
</svg>
